<svg xmlns="http://www.w3.org/2000/svg" viewBox="0 0 128 128">
  <defs>
    <linearGradient id="bg" x1="0" y1="0" x2="1" y2="1">
      <stop offset="0" stop-color="#7f67be"/>
      <stop offset="1" stop-color="#4f378b"/>
    </linearGradient>
    <linearGradient id="card" x1="0" y1="0" x2="0" y2="1">
      <stop offset="0" stop-color="#ffffff"/>
      <stop offset="1" stop-color="#ece6f8"/>
    </linearGradient>
  </defs>
  <rect x="4" y="4" width="120" height="120" rx="34" fill="url(#bg)"/>
  <rect x="30" y="26" width="58" height="72" rx="12" fill="#d0bcff" transform="rotate(-12 59 62)"/>
  <rect x="40" y="30" width="58" height="72" rx="12" fill="url(#card)" transform="rotate(6 69 66)"/>
  <g transform="rotate(6 69 66)">
    <path d="M62 52c0-4.4 3.6-8 8-8s8 3.6 8 8c0 3.2-1.8 4.8-3.7 6.3-1.6 1.2-2.6 2.1-2.6 4v1.2" fill="none" stroke="#4f378b" stroke-width="5" stroke-linecap="round"/>
    <circle cx="71.7" cy="75" r="3.4" fill="#4f378b"/>
  </g>
</svg>
